<svg xmlns="http://www.w3.org/2000/svg" xmlns:xlink="http://www.w3.org/1999/xlink" width="1000" height="1000" viewBox="0 0 1000 1000" fill="none">
<rect x="0" y="0" width="0" height="0" fill="rgba(249, 249, 249, 1)" />
<rect  x="0" y="0" width="1000" height="1000" rx="100"    fill="#04D658" >
</rect>
<g filter="url(#filter_K5-wn7ecJ8pkCSYUqr0Q2)">
<path d="M357.001 456.005C381.304 456.005 401.017 436.317 401.017 412.013L401.017 324.004C401.017 299.701 381.304 280 357.001 280C332.709 280 313.008 299.701 313.008 324.004L313.008 412.013C313.008 436.328 332.697 456.005 357.001 456.005ZM500.005 632.022C382.847 632.022 280.458 579.734 225 501.819L225 589.839C280.47 667.719 382.847 720.018 500.005 720.018C617.151 720.018 719.541 667.719 775 589.839L775 501.819C719.553 579.722 617.164 632.022 500.005 632.022ZM643.022 456.005C667.313 456.005 687.014 436.317 687.014 412.013L687.014 324.004C687.014 299.701 667.314 280 643.022 280C618.706 280 599.006 299.701 599.006 324.004L599.006 412.013C599.006 436.328 618.706 456.005 643.022 456.005Z"   fill="#FFFFFF" >
</path>
</g>
<defs>
<filter id="filter_K5-wn7ecJ8pkCSYUqr0Q2" x="221" y="278" width="557.9999389648438" height="448.0182800292969" filterUnits="userSpaceOnUse" color-interpolation-filters="sRGB">
<feFlood flood-opacity="0" result="feFloodId_K5-wn7ecJ8pkCSYUqr0Q2"/>
<feColorMatrix in="SourceAlpha" type="matrix" values="0 0 0 0 0 0 0 0 0 0 0 0 0 0 0 0 0 0 127 0" result="hardAlpha_K5-wn7ecJ8pkCSYUqr0Q2"/>
<feOffset dx="0" dy="2"/>
<feGaussianBlur stdDeviation="2"/>
<feComposite in2="hardAlpha_K5-wn7ecJ8pkCSYUqr0Q2" operator="out"/>
<feColorMatrix type="matrix" values="0 0 0 0 0 0 0 0 0 0 0 0 0 0 0 0 0 0 0.25 0"/>
<feBlend mode="normal" in2="feFloodId_K5-wn7ecJ8pkCSYUqr0Q2" result="dropShadow_1_K5-wn7ecJ8pkCSYUqr0Q2"/>
<feBlend mode="normal" in="SourceGraphic" in2="dropShadow_1_K5-wn7ecJ8pkCSYUqr0Q2" result="shape_K5-wn7ecJ8pkCSYUqr0Q2"/>
</filter>
</defs>
</svg>
